<svg xmlns="http://www.w3.org/2000/svg" width="30.2" height="30.2" viewBox="0 0 30.2 30.2"><defs><style>.a{fill:#333c46;stroke:#333c46;stroke-width:0.2px;}</style></defs><g transform="translate(0.101 0.097)"><path class="a" d="M56.929,150.922H73.842a.439.439,0,0,0,0-.879H56.929a.439.439,0,0,0,0,.879Z" transform="translate(-53.181 -141.248)"/><path class="a" d="M56.929,231.173H73.842a.439.439,0,1,0,0-.879H56.929a.439.439,0,1,0,0,.879Z" transform="translate(-53.181 -216.797)"/><path class="a" d="M29.5,16.891l-2.913-2.913a1.713,1.713,0,0,0-2.176-.2V6.312a3.734,3.734,0,0,0-2.494-3.527V1.741a1.738,1.738,0,1,0-3.477,0v.831H16.6V1.741a1.738,1.738,0,0,0-3.477,0v.831H11.286V1.741a1.738,1.738,0,0,0-3.477,0v.831H5.971V1.741a1.738,1.738,0,1,0-3.477,0V2.785A3.733,3.733,0,0,0,0,6.312v4.03a.439.439,0,1,0,.879,0V6.312A2.856,2.856,0,0,1,2.494,3.735v.784a1.738,1.738,0,1,0,3.477,0V3.451H7.809V4.518a1.738,1.738,0,0,0,3.477,0V3.451h1.838V4.518a1.738,1.738,0,1,0,3.477,0V3.451h1.838V4.518a1.738,1.738,0,1,0,3.477,0V3.735a2.857,2.857,0,0,1,1.615,2.577v8.3L19.946,18.2H3.748a.439.439,0,1,0,0,.879H19.067L17.105,21.04a2.487,2.487,0,0,0-.7,1.349l-.087.512H3.748a.439.439,0,1,0,0,.879H16.172L15.9,25.362A1.919,1.919,0,0,0,17.785,27.6a1.964,1.964,0,0,0,.329-.028l2.972-.5a2.487,2.487,0,0,0,1.35-.7l1.094-1.094v.986a2.864,2.864,0,0,1-2.861,2.861H3.739A2.864,2.864,0,0,1,.878,26.263V10.339a.439.439,0,0,0-.879,0V26.264A3.744,3.744,0,0,0,3.739,30H20.67a3.744,3.744,0,0,0,3.74-3.739V24.4l2.7-2.7a.439.439,0,1,0-.621-.621l-4.367,4.367-4.088-4.088,5.415-5.415,4.089,4.089-1.048,1.048a.439.439,0,1,0,.621.621L29.5,19.31a1.71,1.71,0,0,0,0-2.419ZM5.092,4.518a.86.86,0,1,1-1.719,0V1.741a.86.86,0,0,1,1.719,0Zm5.315,0a.86.86,0,0,1-1.719,0V1.741a.86.86,0,0,1,1.719,0Zm5.315,0a.86.86,0,0,1-1.719,0V1.741a.86.86,0,0,1,1.719,0Zm5.315,0a.86.86,0,1,1-1.719,0V1.741a.86.86,0,0,1,1.719,0Zm-3.07,22.188a1.038,1.038,0,0,1-1.2-1.2l.053-.316.316-.054a1.038,1.038,0,0,1,1.2,1.2l-.054.317Zm2.973-.5L19.2,26.5l0-.014a1.917,1.917,0,0,0-2.211-2.21l-.013,0,.295-1.739a1.612,1.612,0,0,1,.185-.521l4,4a1.615,1.615,0,0,1-.521.185Zm7.937-7.514-.714.715-4.089-4.089.714-.714a.833.833,0,0,1,1.176,0l2.913,2.913a.831.831,0,0,1,0,1.176Z"/></g></svg>