<svg xmlns="http://www.w3.org/2000/svg" width="29.459" height="30.413" viewBox="0 0 29.459 30.413">
  <g id="Invoice" transform="translate(-7.15 0.2)">
    <g id="Group_2326" data-name="Group 2326" transform="translate(7.35)">
      <path id="Path_2987" data-name="Path 2987" d="M35.641,0H8.118a.768.768,0,0,0,0,1.536H9.776V29.213a.771.771,0,0,0,.4.678.758.758,0,0,0,.787-.038L14.3,27.632l3.348,2.227a.764.764,0,0,0,.851,0l3.335-2.221,3.348,2.227a.764.764,0,0,0,.851,0l3.335-2.221,3.348,2.227a.778.778,0,0,0,.422.128.829.829,0,0,0,.365-.09.771.771,0,0,0,.4-.678L33.894,1.555h1.747a.77.77,0,0,0,.768-.768A.787.787,0,0,0,35.641,0ZM32.377,27.779,29.8,26.064a.764.764,0,0,0-.851,0l-3.335,2.227-3.348-2.227a.764.764,0,0,0-.851,0l-3.335,2.221L14.73,26.064a.764.764,0,0,0-.851,0l-2.567,1.709V1.53H32.37Z" transform="translate(-7.35)" fill="#009adf" stroke="#d8f2ff" stroke-width="0.4"/>
      <path id="Path_2988" data-name="Path 2988" d="M113.218,169.136h8.046a.768.768,0,0,0,0-1.536h-8.046a.768.768,0,1,0,0,1.536Z" transform="translate(-105.723 -156.872)" fill="#009adf" stroke="#d8f2ff" stroke-width="0.4"/>
      <path id="Path_2989" data-name="Path 2989" d="M113.218,210.836h6.029a.768.768,0,0,0,0-1.536h-6.029a.768.768,0,0,0,0,1.536Z" transform="translate(-105.723 -195.903)" fill="#009adf" stroke="#d8f2ff" stroke-width="0.4"/>
      <path id="Path_2990" data-name="Path 2990" d="M301.718,169.136h2.01a.768.768,0,1,0,0-1.536h-2.01a.768.768,0,1,0,0,1.536Z" transform="translate(-282.158 -156.872)" fill="#009adf" stroke="#d8f2ff" stroke-width="0.4"/>
      <path id="Path_2991" data-name="Path 2991" d="M301.718,210.836h2.01a.768.768,0,1,0,0-1.536h-2.01a.768.768,0,1,0,0,1.536Z" transform="translate(-282.158 -195.903)" fill="#009adf" stroke="#d8f2ff" stroke-width="0.4"/>
      <path id="Path_2992" data-name="Path 2992" d="M113.218,72.836h8.046a.768.768,0,1,0,0-1.536h-8.046a.768.768,0,1,0,0,1.536Z" transform="translate(-105.723 -66.736)" fill="#009adf" stroke="#d8f2ff" stroke-width="0.4"/>
      <path id="Path_2993" data-name="Path 2993" d="M113.218,114.436h6.029a.768.768,0,0,0,0-1.536h-6.029a.768.768,0,1,0,0,1.536Z" transform="translate(-105.723 -105.674)" fill="#009adf" stroke="#d8f2ff" stroke-width="0.4"/>
      <path id="Path_2994" data-name="Path 2994" d="M301.718,72.836h2.01a.768.768,0,1,0,0-1.536h-2.01a.768.768,0,1,0,0,1.536Z" transform="translate(-282.158 -66.736)" fill="#009adf" stroke="#d8f2ff" stroke-width="0.4"/>
      <path id="Path_2995" data-name="Path 2995" d="M301.718,114.436h2.01a.768.768,0,1,0,0-1.536h-2.01a.768.768,0,1,0,0,1.536Z" transform="translate(-282.158 -105.674)" fill="#009adf" stroke="#d8f2ff" stroke-width="0.4"/>
      <path id="Path_2996" data-name="Path 2996" d="M113.218,266.636h8.046a.768.768,0,1,0,0-1.536h-8.046a.768.768,0,1,0,0,1.536Z" transform="translate(-105.723 -248.132)" fill="#009adf" stroke="#d8f2ff" stroke-width="0.4"/>
      <path id="Path_2997" data-name="Path 2997" d="M113.218,308.236h6.029a.768.768,0,0,0,0-1.536h-6.029a.768.768,0,0,0,0,1.536Z" transform="translate(-105.723 -287.069)" fill="#009adf" stroke="#d8f2ff" stroke-width="0.4"/>
      <path id="Path_2998" data-name="Path 2998" d="M301.718,266.636h2.01a.768.768,0,1,0,0-1.536h-2.01a.768.768,0,1,0,0,1.536Z" transform="translate(-282.158 -248.132)" fill="#009adf" stroke="#d8f2ff" stroke-width="0.4"/>
      <path id="Path_2999" data-name="Path 2999" d="M301.718,308.236h2.01a.768.768,0,1,0,0-1.536h-2.01a.768.768,0,1,0,0,1.536Z" transform="translate(-282.158 -287.069)" fill="#009adf" stroke="#d8f2ff" stroke-width="0.4"/>
    </g>
  </g>
</svg>
