<svg xmlns="http://www.w3.org/2000/svg" width="28.071" height="30" viewBox="0 0 28.071 30"><defs><style>.a{fill:#009adf;}</style></defs><g transform="translate(-16.462 0)"><g transform="translate(16.462 0)"><path class="a" d="M44.209,18.463a.827.827,0,0,1,.066-.912,1.628,1.628,0,0,0-.623-2.325.837.837,0,0,1-.508-.88,1.628,1.628,0,0,0-1.7-1.7.837.837,0,0,1-.88-.508,1.628,1.628,0,0,0-2.325-.623.837.837,0,0,1-1.016,0,1.629,1.629,0,0,0-2.326.623.837.837,0,0,1-.88.508,1.628,1.628,0,0,0-1.7,1.7.837.837,0,0,1-.508.88,1.628,1.628,0,0,0-.623,2.325.837.837,0,0,1,0,1.016,1.628,1.628,0,0,0,.623,2.325.837.837,0,0,1,.508.88A1.632,1.632,0,0,0,32.789,23a2.094,2.094,0,0,0,1.572.493H21.93a.78.78,0,0,1-.779-.779v-5.7h.694a.439.439,0,0,0,0-.879h-.694V6.046h.694a.439.439,0,0,0,0-.879h-.694V1.658A.78.78,0,0,1,21.93.879H38.148a.779.779,0,0,1,.778.779L38.871,11.7a.439.439,0,0,0,.879,0l.056-10.038A1.659,1.659,0,0,0,38.148,0H21.93a1.659,1.659,0,0,0-1.658,1.658v.175H19.9A1.659,1.659,0,0,0,18.243,3.49V5.212a2.223,2.223,0,0,0,0,4.357v6.607a2.223,2.223,0,0,0,0,4.357v4.014A1.659,1.659,0,0,0,19.9,26.2H34.506a.439.439,0,1,0,0-.879H19.9a.779.779,0,0,1-.779-.778V17.01h1.151v5.7a1.659,1.659,0,0,0,1.658,1.658H34.409v4.538A1.111,1.111,0,0,0,35.5,30a1.085,1.085,0,0,0,.56-.157l1.67-1,1.67,1a1.09,1.09,0,0,0,1.65-.934v-5.4A2.3,2.3,0,0,0,42.67,23a1.632,1.632,0,0,0,.475-1.227.837.837,0,0,1,.508-.88,1.628,1.628,0,0,0,.623-2.325ZM19.9,2.712h.373V5.168H19.122V3.49A.779.779,0,0,1,19.9,2.712ZM17.341,18.353a1.346,1.346,0,0,1,.9-1.269v2.537a1.346,1.346,0,0,1-.9-1.269Zm1.781-2.223V7.743a.439.439,0,0,0-.879,0v.916a1.344,1.344,0,0,1,.442-2.612h1.588V16.131ZM40.064,29.092a.207.207,0,0,1-.212,0l-1.9-1.138a.439.439,0,0,0-.452,0l-1.9,1.139c-.1.033-.232.09-.319-.181V24.474a1.626,1.626,0,0,0,1.933.131c.729-.567,1.433.556,2.316.2a1.629,1.629,0,0,0,.633-.333v4.435a.207.207,0,0,1-.107.183Zm3.565-9.453a.741.741,0,0,1-.38.472,1.7,1.7,0,0,0-.982,1.7.75.75,0,0,1-.784.784,1.688,1.688,0,0,0-1.7.982.75.75,0,0,1-1.07.287,1.687,1.687,0,0,0-1.964,0,.75.75,0,0,1-1.07-.287,1.688,1.688,0,0,0-1.7-.982.75.75,0,0,1-.784-.784,1.7,1.7,0,0,0-.982-1.7.75.75,0,0,1-.287-1.07,1.7,1.7,0,0,0,0-1.964.75.75,0,0,1,.287-1.07,1.7,1.7,0,0,0,.982-1.7.75.75,0,0,1,.784-.784,1.7,1.7,0,0,0,1.7-.982.75.75,0,0,1,1.07-.287,1.7,1.7,0,0,0,1.964,0,.75.75,0,0,1,1.07.287,1.7,1.7,0,0,0,1.7.982.75.75,0,0,1,.784.784,1.7,1.7,0,0,0,.982,1.7.75.75,0,0,1,.287,1.07,1.7,1.7,0,0,0,0,1.964.741.741,0,0,1,.093.6Z" transform="translate(-16.462 0)"/><path class="a" d="M303.593,227.645a4.72,4.72,0,1,0,4.72,4.72A4.726,4.726,0,0,0,303.593,227.645Zm0,8.562a3.841,3.841,0,1,1,3.841-3.841A3.846,3.846,0,0,1,303.593,236.207Z" transform="translate(-282.326 -214.307)"/><path class="a" d="M343.122,270.077l-.78-.243-.452-.681a.731.731,0,0,0-1.206-.018l-.472.667-.787.219a.731.731,0,0,0-.39,1.142l.488.655-.035.816a.731.731,0,0,0,.965.724l.774-.262.766.285a.77.77,0,0,0,.676-.087.731.731,0,0,0,.31-.607l-.01-.817.508-.64a.731.731,0,0,0-.356-1.153Zm-.873,1.288a.734.734,0,0,0-.158.464l.008.654-.613-.229a.734.734,0,0,0-.49-.007l-.62.21.028-.654a.734.734,0,0,0-.144-.468l-.391-.524.63-.175a.734.734,0,0,0,.4-.282l.378-.534.362.545a.734.734,0,0,0,.392.294h0l.625.194Z" transform="translate(-319.998 -253.076)"/><path class="a" d="M148.134,68.951a.439.439,0,0,0,0-.879h-.755l.219-4.089a.9.9,0,0,0-.9-.951h-2.24a.9.9,0,0,0-.9.952l.1,1.847a2.434,2.434,0,0,0-1.482-.5h-2.814a2.449,2.449,0,0,0-2.446,2.446v.3h-1.09a.439.439,0,1,0,0,.879h12.315Zm-3.679-5.041h2.24s.022,0,.024.026l-.221,4.136h-1.847l-.221-4.136A.026.026,0,0,1,144.455,63.91Zm-6.666,4.162v-.3a1.569,1.569,0,0,1,1.567-1.567h2.814a1.569,1.569,0,0,1,1.567,1.567v.3Z" transform="translate(-128.412 -59.338)"/><path class="a" d="M135.82,213.065h3.888a.439.439,0,0,0,0-.879H135.82a.439.439,0,1,0,0,.879Z" transform="translate(-128.413 -199.754)"/><path class="a" d="M141.454,275.309H135.82a.439.439,0,1,0,0,.879h5.633a.439.439,0,1,0,0-.879Z" transform="translate(-128.413 -259.178)"/><path class="a" d="M141.454,305.01H135.82a.439.439,0,0,0,0,.879h5.633a.439.439,0,0,0,0-.879Z" transform="translate(-128.413 -287.139)"/><path class="a" d="M189.2,334.71h-2.662a.439.439,0,1,0,0,.879H189.2a.439.439,0,1,0,0-.879Z" transform="translate(-176.159 -315.099)"/><path class="a" d="M135.82,334.71a.439.439,0,1,0,0,.879h.921a.439.439,0,1,0,0-.879Z" transform="translate(-128.413 -315.099)"/><path class="a" d="M200.212,75.187a.458.458,0,1,0-.647,0A.458.458,0,0,0,200.212,75.187Z" transform="translate(-188.71 -70.046)"/><path class="a" d="M226.036,75.187a.458.458,0,1,0-.647,0A.458.458,0,0,0,226.036,75.187Z" transform="translate(-213.021 -70.046)"/></g></g></svg>