<svg xmlns="http://www.w3.org/2000/svg" width="31.234" height="30.208" viewBox="0 0 31.234 30.208"><defs><style>.a{fill:#333c46;stroke:#333c46;stroke-width:0.2px;}</style></defs><g transform="translate(0.1 0.1)"><path class="a" d="M28.448,0H6.724A2.589,2.589,0,0,0,4.138,2.586V22.759H.517A.517.517,0,0,0,0,23.276V24.31A2.589,2.589,0,0,0,2.586,26.9H18.633v2.586a.517.517,0,0,0,.828.414l1.759-1.319L22.978,29.9a.514.514,0,0,0,.31.1.509.509,0,0,0,.517-.517V26.9h.5A2.589,2.589,0,0,0,26.9,24.31V4.138h3.621a.517.517,0,0,0,.517-.517V2.586A2.589,2.589,0,0,0,28.448,0ZM18.633,25.862H2.586A1.552,1.552,0,0,1,1.034,24.31v-.517h17.6Zm4.138,2.586-1.241-.931a.517.517,0,0,0-.621,0l-1.241.931V22.671a1.527,1.527,0,0,0,.3-.006,1.576,1.576,0,0,0,2.491,0,1.536,1.536,0,0,0,.31.006Zm.665-8.286a.517.517,0,0,0-.294.71.538.538,0,0,1-.714.718.517.517,0,0,0-.71.294.536.536,0,0,1-1.01,0A.517.517,0,0,0,20,21.59a.537.537,0,0,1-.714-.718.518.518,0,0,0-.293-.71.538.538,0,0,1,0-1.014.518.518,0,0,0,.293-.709A.537.537,0,0,1,20,17.721a.517.517,0,0,0,.71-.294.536.536,0,0,1,1.01,0,.517.517,0,0,0,.71.294.538.538,0,0,1,.714.718.517.517,0,0,0,.294.71.538.538,0,0,1,0,1.014ZM26.339,1.1c-.029.041-.055.085-.082.129a2.589,2.589,0,0,0-.149.274c-.023.052-.045.1-.065.15a2.625,2.625,0,0,0-.1.31c-.012.048-.027.095-.036.144a2.578,2.578,0,0,0-.049.48V24.31a1.526,1.526,0,0,1-2.057,1.457v-3.6a1.551,1.551,0,0,0,.414-1.267,1.58,1.58,0,0,0,0-2.493,1.577,1.577,0,0,0-1.759-1.764,1.576,1.576,0,0,0-2.491,0,1.578,1.578,0,0,0-1.759,1.764,1.58,1.58,0,0,0,0,2.493,1.555,1.555,0,0,0,.425,1.282v.575H5.172V2.586A1.552,1.552,0,0,1,6.724,1.034H26.379c-.014.02-.025.043-.04.065ZM30,3.1H26.9V2.586a1.552,1.552,0,0,1,3.1,0Zm0,0"/><path class="a" d="M264,64h2.069v1.034H264Zm0,0" transform="translate(-246.931 -59.862)"/><path class="a" d="M184,64h4.138v1.034H184Zm0,0" transform="translate(-172.103 -59.862)"/><path class="a" d="M160,104h10.345v1.034H160Zm0,0" transform="translate(-149.655 -97.276)"/><path class="a" d="M120,152h2.586v1.034H120Zm0,0" transform="translate(-112.241 -142.172)"/><path class="a" d="M120,192h5.69v1.034H120Zm0,0" transform="translate(-112.241 -179.586)"/><path class="a" d="M176,152h11.9v1.034H176Zm0,0" transform="translate(-164.621 -142.172)"/><path class="a" d="M224,192h8.793v1.034H224Zm0,0" transform="translate(-209.517 -179.586)"/><path class="a" d="M120,232h10.345v1.034H120Zm0,0" transform="translate(-112.241 -217)"/><path class="a" d="M120,272h8.793v1.035H120Zm0,0" transform="translate(-112.241 -254.414)"/></g></svg>