<svg xmlns="http://www.w3.org/2000/svg" width="26.633" height="30" viewBox="0 0 26.633 30"><defs><style>.a{fill:#009adf;}</style></defs><g transform="translate(-28.73 0)"><g transform="translate(28.73 0)"><path class="a" d="M97.041,137.8H82.674a.441.441,0,1,0,0,.883H97.041a.441.441,0,1,0,0-.883Z" transform="translate(-79.098 -129.73)"/><path class="a" d="M82.674,86.44h7.183a.441.441,0,0,0,0-.883H82.674a.441.441,0,0,0,0,.883Z" transform="translate(-79.098 -80.544)"/><path class="a" d="M97.041,184.1H82.674a.441.441,0,0,0,0,.883H97.041a.441.441,0,1,0,0-.883Z" transform="translate(-79.098 -173.309)"/><path class="a" d="M37.379,26.934h-6.4a1.37,1.37,0,0,1-1.369-1.369V2.251A1.37,1.37,0,0,1,30.981.883H44.227a.944.944,0,0,1,.127.01V3.645A2.254,2.254,0,0,0,46.6,5.9h2.752a.937.937,0,0,1,.01.127l.008,9.624c0,.244.875-.065.875-.309V6.022a1.8,1.8,0,0,0-.531-1.282L45.508.531A1.8,1.8,0,0,0,44.227,0H30.981A2.254,2.254,0,0,0,28.73,2.251V25.565a2.254,2.254,0,0,0,2.251,2.251h7.6C38.823,27.816,37.623,26.934,37.379,26.934ZM48.742,5.013H46.6a1.37,1.37,0,0,1-1.369-1.369V1.507Z" transform="translate(-28.73 0)"/><path class="a" d="M110.362,259.689l-3.739-6.312a.967.967,0,0,0-1.326-.34l-.91.539a1.728,1.728,0,0,0-.762,2.015,1.353,1.353,0,0,1-.952-.01c-.718-.226-1.264-.68-2.166-.452-1.531.39-1.485.37-1.623.418a2.359,2.359,0,0,0-2.387-.294l-.848.328a1.357,1.357,0,0,1-1.188-.1l-.232-.136a1.724,1.724,0,0,0-.823-1.768h0l-.909-.539a.969.969,0,0,0-1.326.339l-3.739,6.312a.967.967,0,0,0,.339,1.326l.91.539a1.714,1.714,0,0,0,.876.241,1.737,1.737,0,0,0,.943-.278l.19.112-.4.557a1.479,1.479,0,0,0,1.432,2.324,1.478,1.478,0,0,0,1.687,1.212,1.479,1.479,0,0,0,2.041,1.11,1.478,1.478,0,0,0,2.514.416l1.063.63a1.482,1.482,0,0,0,2.225-1.1l0,0a1.48,1.48,0,0,0,2.23-1.164,1.48,1.48,0,0,0,1.834-1.28,1.481,1.481,0,0,0,1.673-2.331l.586-.342a1.722,1.722,0,0,0,1.536-.11l.909-.539A.967.967,0,0,0,110.362,259.689ZM89.13,260.794l-.91-.539a.085.085,0,0,1-.03-.117l3.739-6.312a.085.085,0,0,1,.117-.03l.909.539a.843.843,0,0,1,.3,1.154L90.284,260.5A.844.844,0,0,1,89.13,260.794Zm2.012,2.739a.6.6,0,0,1-.137-.833l.588-.819a.6.6,0,0,1,.97.7l-.588.819A.6.6,0,0,1,91.142,263.533Zm1.687,1.211a.6.6,0,0,1-.137-.833l.588-.819h0l.649-.9a.593.593,0,0,1,.388-.241.6.6,0,0,1,.1-.008.6.6,0,0,1,.484.945l-1.237,1.724A.6.6,0,0,1,92.83,264.744Zm1.687,1.211a.6.6,0,0,1-.137-.833h0l1.237-1.724a.6.6,0,1,1,.97.7l-.55.766h0l-.688.958a.6.6,0,0,1-.833.137Zm1.963.827a.6.6,0,0,1-.137-.833l.412-.574a.6.6,0,1,1,.97.7l-.412.573A.6.6,0,0,1,96.48,266.782Zm9.892-3.519a.6.6,0,0,1-.818.21l-3.906-2.314a.441.441,0,0,0-.45.759l2.953,1.75h0a.6.6,0,0,1-.609,1.028l-2.955-1.751a.441.441,0,1,0-.45.759l2.176,1.289h0a.6.6,0,0,1-.609,1.028l-1.168-.692h0l-.852-.5a.441.441,0,1,0-.45.759l.852.505h0a.6.6,0,1,1-.609,1.028l-.994-.589a1.479,1.479,0,0,0-.994-2.262,1.479,1.479,0,0,0-1.615-1.98,1.479,1.479,0,0,0-2.51-.791,1.478,1.478,0,0,0-2.057-.528l-.2-.119,2.776-4.685.132.078a2.235,2.235,0,0,0,1.956.163l.848-.328a1.3,1.3,0,0,1,1.233.027,1.975,1.975,0,0,0-.5,1.316v1.957a.944.944,0,0,0,.942.943h0A1.955,1.955,0,0,0,100.339,259l5.823,3.449a.6.6,0,0,1,.209.818Zm3.2-3.008-.91.539a.844.844,0,0,1-1.154-.3l-1.391-2.348a.441.441,0,0,0-.759.45l1.391,2.348c.026.044.055.086.084.127l-.387.226a2.233,2.233,0,0,0-.225.153l-6-3.551a.442.442,0,0,0-.666.38,1.127,1.127,0,0,1-.313.839,1.062,1.062,0,0,1-.755.313h0a.06.06,0,0,1-.06-.061v-1.957a1.1,1.1,0,0,1,.827-1.063l1.466-.371c.532-.134.832.15,1.629.419a2.231,2.231,0,0,0,1.688-.027l1.318,2.225a.441.441,0,1,0,.759-.45l-1.577-2.661a.842.842,0,0,1,.3-1.154l.91-.539a.085.085,0,0,1,.117.03l3.739,6.312A.085.085,0,0,1,109.573,260.255Z" transform="translate(-83.864 -238.083)"/></g></g></svg>