<svg xmlns="http://www.w3.org/2000/svg" width="23.145" height="30" viewBox="0 0 23.145 30"><defs><style>.a{fill:#f6fbff;}.b{fill:#daeaf6;}.c{fill:#333c46;}</style></defs><g transform="translate(0.439 0.439)"><path class="a" d="M84.242,11.729,82.2,7.5H67.465A1.465,1.465,0,0,0,66,8.965V35.156a1.465,1.465,0,0,0,1.465,1.465H84.808a1.458,1.458,0,0,0,.859-.278H86.9V12.655Z" transform="translate(-66 -7.5)"/><path class="b" d="M389.078,91.96l-.628-.219v22.72a1.465,1.465,0,0,1-1.465,1.465h1.993a1.465,1.465,0,0,0,1.465-1.465V92.869Z" transform="translate(-368.177 -86.805)"/><path class="b" d="M343.965,13.564h4.6L342.5,7.5v4.6A1.465,1.465,0,0,0,343.965,13.564Z" transform="translate(-326.299 -7.5)"/></g><g transform="translate(0)"><path class="c" d="M62.321,29.121H60.4A1.027,1.027,0,0,1,59.379,28.1V1.9A1.027,1.027,0,0,1,60.4.879h7.614a.439.439,0,0,0,0-.879H60.4a1.907,1.907,0,0,0-1.9,1.9V28.1A1.907,1.907,0,0,0,60.4,30h1.917a.439.439,0,0,0,0-.879Z" transform="translate(-58.5)"/><path class="c" d="M134.174,164.781H118.939a.439.439,0,0,0,0,.879h15.234a.439.439,0,0,0,0-.879Z" transform="translate(-114.984 -155.126)"/><path class="c" d="M134.174,231.448H118.939a.439.439,0,0,0,0,.879h15.234a.439.439,0,0,0,0-.879Z" transform="translate(-114.984 -217.887)"/><path class="c" d="M134.174,298.115H118.939a.439.439,0,0,0,0,.879h15.234a.439.439,0,0,0,0-.879Z" transform="translate(-114.984 -280.647)"/><path class="c" d="M134.174,364.781H118.939a.439.439,0,0,0,0,.879h15.234a.439.439,0,0,0,0-.879Z" transform="translate(-114.984 -343.407)"/><path class="c" d="M162.485,0l-.062,0H157.35a.439.439,0,1,0,0,.879h4.632v4.16a1.907,1.907,0,0,0,1.9,1.9h4.16V28.1a1.027,1.027,0,0,1-1.025,1.025H151.653a.439.439,0,0,0,0,.879h15.368a1.907,1.907,0,0,0,1.9-1.9V6.5a.445.445,0,0,0-.129-.311L162.733.129A.45.45,0,0,0,162.485,0Zm1.4,6.06a1.027,1.027,0,0,1-1.025-1.025V1.5l4.564,4.564Z" transform="translate(-145.782)"/></g></svg>