<svg xmlns="http://www.w3.org/2000/svg" width="525.354" height="400" viewBox="0 0 525.354 400"><defs><style>.a,.u{fill:none;fill-rule:evenodd;}.a{stroke:#102048;stroke-width:5px;}.b{fill:rgba(31,60,136,0.15);}.c{fill:#1f3c88;}.d{fill:#d3dfff;}.e{fill:#27481f;}.f{fill:#49883a;}.g{fill:rgba(39,72,31,0.5);}.h{fill:rgba(39,72,31,0.38);}.i{fill:rgba(39,72,31,0.2);}.j{fill:#fbc343;}.k{fill:rgba(200,155,53,0.4);}.l{fill:#ee6f57;}.m{fill:#f9b384;}.n{fill:#b35341;}.o{fill:#708cd5;}.p{fill:#102048;}.q{fill:#e28b6d;}.r{fill:rgba(31,60,136,0.4);}.s{fill:#fff;}.t{fill:#c89b35;}.u{stroke:#e28b6d;stroke-width:2.5px;}.v{fill:rgba(31,60,136,0.1);}.w{fill:rgba(238,111,87,0.4);}</style></defs><g transform="translate(-0.556 -0.173)"><path class="a" d="M.557.638,525.91.5" transform="translate(0 313.319)"/><g transform="translate(32.69 239.473)"><path class="b" d="M29.758,11.759c16.435,0,29.758-2.632,29.758-5.88S46.193,0,29.758,0,0,2.632,0,5.88,13.323,11.759,29.758,11.759Z" transform="translate(0 97.755)"/><g transform="translate(2.501 0)"><g transform="translate(0 63.561)"><path class="c" d="M13.606,28.629C7.167,28.629,0,18.848,0,12.219,0,5.481,5.176,0,11.539,0s11.54,5.481,11.54,12.219C23.079,18.564,20.507,28.629,13.606,28.629ZM11.539,4.063a7.912,7.912,0,0,0-7.624,8.156c0,4.962,5.8,12.347,9.691,12.347,3.578,0,5.557-7.3,5.557-12.347a7.911,7.911,0,0,0-7.623-8.156Z" transform="translate(0 0)"/></g><path class="c" d="M25.838,48.962H8.9A5.5,5.5,0,0,1,3.5,43.811L0,0H35.436L31.223,43.9A5.491,5.491,0,0,1,25.838,48.962Z" transform="translate(10.029 53.801)"/><path class="d" d="M3.8.483A28.462,28.462,0,0,0,2.76,12.936a27.6,27.6,0,0,0,1.668,5.923,34.732,34.732,0,0,0,2.913,5.447,45.809,45.809,0,0,0,3.8,4.937c.331.374.693.836,1.056,1.288s.731.886,1.065,1.365l.94,1.5a13.181,13.181,0,0,1,.777,1.628,9.732,9.732,0,0,1,.573,1.748,8.985,8.985,0,0,1,.3,1.85,4.089,4.089,0,0,1,.01.945l-.063.946c-.043.312-.125.618-.19.926a4.714,4.714,0,0,1-.257.9l-.342.862c-.14.272-.293.536-.439.8a5.708,5.708,0,0,1-.492.753,6.049,6.049,0,0,1-.546.7,10.259,10.259,0,0,1-2.661,2.226L10.224,46.6a9.892,9.892,0,0,0,3.04-4.941,3.029,3.029,0,0,0,.122-.692c.022-.233.067-.461.075-.693l-.031-.7a2.451,2.451,0,0,0-.077-.69,6.715,6.715,0,0,0-.332-1.361,7.017,7.017,0,0,0-.544-1.318,14,14,0,0,0-.709-1.268l-.841-1.219c-.3-.4-.658-.761-.98-1.143l-1.04-1.176c-.744-.828-1.486-1.658-2.166-2.551-.717-.859-1.347-1.8-1.981-2.732a33.283,33.283,0,0,1-3.108-6.093A26.628,26.628,0,0,1,.106,13.277,24.86,24.86,0,0,1,2.67,0Z" transform="translate(10.335 0.77)"/><path class="d" d="M.889,0A15.23,15.23,0,0,1,5.7,7.453a17.244,17.244,0,0,1,.64,4.583,21.92,21.92,0,0,1-.515,4.551,27.78,27.78,0,0,1-1.367,4.272l-.371.943c-.11.295-.244.59-.337.885l-.237.887c-.087.3-.1.581-.157.874A4.217,4.217,0,0,0,3.3,25.3a4.02,4.02,0,0,0,.068.825,4.922,4.922,0,0,0,.188.792,5.127,5.127,0,0,0,.361.734A6.1,6.1,0,0,0,6.6,29.941l-.24,1.246a6.477,6.477,0,0,1-4.162-2.128A6.026,6.026,0,0,1,.94,26.8a6.217,6.217,0,0,1-.265-1.27,6.921,6.921,0,0,1-.063-1.268,8.738,8.738,0,0,1,.1-1.235l.234-1.185c.094-.386.226-.748.339-1.124s.236-.759.347-1.052a31.57,31.57,0,0,0,1.163-3.819,23.508,23.508,0,0,0,.556-3.876,18.424,18.424,0,0,0-.241-3.856A18.96,18.96,0,0,0,0,.87Z" transform="translate(28.639)"/></g></g><g transform="translate(408.023 101.34)"><path class="b" d="M58.588,18.429c32.357,0,58.588-4.125,58.588-9.214S90.945,0,58.588,0,0,4.125,0,9.214,26.231,18.429,58.588,18.429Z" transform="translate(0 232.423)"/><path class="e" d="M0,0H8.223V85.454H0Z" transform="translate(54.094 91.546)"/><path class="f" d="M41.489,63.214a128.889,128.889,0,0,1-1.1,14.759c-.347,2.588-.64,4.079-.64,4.079C17.3,74.313,7,59.529,2.713,44.614c-.4-1.36-.74-2.727-1.033-4.087C-2.853,19.772,3.222,0,3.222,0c10.291,2.285,17.9,7.052,23.489,13.187a41.947,41.947,0,0,1,2.7,3.252C39.755,30.215,41.736,49.209,41.489,63.214Z" transform="translate(18.772 22.589)"/><path class="f" d="M43.715,44.491c-.447,16.594-6.522,35.924-25.362,54.483q-2.162,2.138-4.571,4.267c-.17.156-.339.3-.509.45A85.48,85.48,0,0,1,6.935,90.915c-.046-.115-.093-.221-.131-.336a98.566,98.566,0,0,1-3.261-9.427q-1.3-4.446-2.159-9.018C-.881,59.922-.889,45.441,5.378,31.108c4.7-10.8,12.966-21.5,26.488-31.108A84.218,84.218,0,0,1,43.715,44.491Z" transform="translate(45.647 0)"/><path class="g" d="M52.915,63.2q-2.162,2.138-4.571,4.267c-.17.156-.339.3-.509.45A85.48,85.48,0,0,1,41.5,55.138c-.044-.108-.088-.226-.131-.335h0c-.272-.675-.544-1.374-.815-2.091-.1-.274-.2-.563-.308-.842-.177-.481-.354-.958-.528-1.456-.137-.391-.27-.8-.4-1.2-.141-.421-.284-.832-.422-1.263q-.4-1.257-.785-2.572-1.3-4.446-2.158-9.018A72.09,72.09,0,0,1,37.1,3.252,41.945,41.945,0,0,0,34.4,0a123.464,123.464,0,0,0-6.088,32.473A83.365,83.365,0,0,0,9.366,27.34c.293,1.36.632,2.727,1.033,4.087C7.2,30.616,3.739,29.9,0,29.314c2.953,10.7,14.793,44.769,45.691,45.277.786.016,1.58.008,2.389-.025,1.272-.041,2.575-.148,3.916-.311A33.722,33.722,0,0,0,52.915,63.2Z" transform="translate(11.084 35.777)"/><path class="f" d="M51.727,43.983a.3.3,0,0,1-.008.082c-.015.2-.031.4-.054.59-.015.09-.023.18-.031.27-.015.156-.031.3-.054.45-.054.45-.116.868-.177,1.27-.039.262-.085.516-.131.762a25.739,25.739,0,0,1-.871,3.514,45.046,45.046,0,0,1-6.314-.008C7.508,48.308,0,0,0,0,1.179.156,2.328.328,3.454.516c3.739.59,7.2,1.3,10.4,2.113,13.221,3.342,21.97,8.379,27.706,13.948a34.964,34.964,0,0,1,4.386,5.135,32.31,32.31,0,0,1,5.581,14.276c.131.917.216,1.81.27,2.678A36.37,36.37,0,0,1,51.727,43.983Z" transform="translate(7.632 64.574)"/><path class="h" d="M42.33,0A72.136,72.136,0,0,1,36.54,26.5c-3.924,9.231-10.153,18.7-19.573,27.979-.039.033-.077.074-.116.106q-.833.823-1.711,1.646c-.17.164-.339.328-.517.491-.725.672-1.465,1.351-2.228,2.023-.054-.868-.139-1.761-.27-2.678A32.31,32.31,0,0,0,6.545,41.8a34.97,34.97,0,0,0-4.386-5.135Q.858,32.215,0,27.643A41.325,41.325,0,0,1,5.558,31.73a35.025,35.025,0,0,1,3.1,3.063C13.475,21.4,23.181,7.691,42.33,0Z" transform="translate(47.032 44.491)"/><path class="i" d="M8.155,22.27a.3.3,0,0,1-.008.082c-.015.2-.031.4-.054.59-.015.09-.023.18-.031.27-.015.156-.031.3-.054.45-.054.451-.116.868-.177,1.27-.046.262-.085.516-.131.762a25.737,25.737,0,0,1-.871,3.514A45.061,45.061,0,0,1,.515,29.2,84.867,84.867,0,0,1,1.378,4.628c.278-1.515.609-3.063.994-4.628A32.311,32.311,0,0,1,7.954,14.276c.131.917.216,1.81.27,2.678A36.358,36.358,0,0,1,8.155,22.27Z" transform="translate(51.204 86.287)"/><path class="j" d="M71.955,0,62.913,62.887C61.9,69.9,56.228,75.075,49.553,75.074H22.4c-6.672-.007-12.344-5.181-13.36-12.188L0,0Z" transform="translate(22.61 166.079)"/><path class="f" d="M.567,71.431S-9.34,9,53.671,0C53.671,0,57.623,68.412.567,71.431Z" transform="translate(56.518 44.14)"/><path class="k" d="M62.388,0,53.346,62.887c-1.009,7.011-6.685,12.188-13.36,12.188H12.835A13.607,13.607,0,0,1,0,65.2C35.253,59.2,44.7,20.64,46.616,0Z" transform="translate(32.177 166.079)"/></g><g transform="translate(110.965 0.173)"><path class="b" d="M285.743,13.907C285.743,6.227,221.777,0,142.871,0S0,6.227,0,13.907c0,6.23,42.083,11.5,100.087,13.273C106.4,38.264,95.86,51.523,87.778,56.3c-14.19.758-24.374,2.446-22.77,6.049,7.584,17.035,72.032-1.092,72.032-1.092s25.2,1.676,25.2-.887c0-1.179-4.438-2.256-11.738-3.075l.54-.033L123.836,27.693q9.342.121,19.036.123C221.777,27.815,285.743,21.588,285.743,13.907Z" transform="translate(14.712 330.348)"/><path class="l" d="M313.075,84.224c-1.883,33.243-17.548,66.46-43.227,84.74-30.61,21.792-73.408,16.969-108.266,19.745-30.135,2.4-60.5,4.463-90.642,1.032-24.7-2.817-49.612-13.284-61.41-38.934C-2.29,125.1-3.569,90.94,8.252,64.921A83.522,83.522,0,0,1,23,42.8c.965-1.056,1.968-2.088,2.986-3.1.689-.68,1.386-1.351,2.1-2.006,1.087-1.007,2.2-1.99,3.338-2.948.375-.311.75-.622,1.133-.934s.758-.614,1.141-.917.766-.606,1.156-.9l.873-.663q.724-.553,1.47-1.081a100.972,100.972,0,0,1,13.827-8.37,105.927,105.927,0,0,1,14.271-5.938c15.856-5.266,32.416-7.133,48.777-9.435C148.789,1.638,184.138-.024,219.134,0c28.558.008,60.714,4.578,79.809,30.8C309.722,45.609,314.155,65.289,313.075,84.224Z" transform="translate(0 157.874)"/><path class="m" d="M.357,14.842s7.366-7.4,11.27-11.686-4.613-4.422-8.811.917A12.333,12.333,0,0,0,.357,14.842Z" transform="translate(253.927 171.11)"/><path class="n" d="M28.022,0A100.973,100.973,0,0,0,14.195,8.37q-.746.528-1.47,1.081l-.873.663c-.39.295-.773.6-1.156.9s-.766.606-1.141.917-.758.622-1.133.934Q6.745,14.291,5.13,15.79l-.046.025c-.712.655-1.409,1.327-2.1,2.006C1.968,18.828.965,19.86,0,20.917a2.055,2.055,0,0,0,1.481,1.894c5.746,1.245,8.624,7.109,13.256,10.442a12.034,12.034,0,0,0,11.39,1.736c-4.188,9.486-6.5,18.9-4.689,29.516a39.76,39.76,0,0,0,2.8,9.289c-5.382-4.276-10.566-13.435-12.7-22.722a2.293,2.293,0,0,0-2.779-1.8,2.472,2.472,0,0,0-1.683,2.972c2.639,11.5,9.359,22.547,16.34,26.867A14.4,14.4,0,0,0,28.445,81.1a36.708,36.708,0,0,0,4.622,5.235l10.321,3.088L51.81,31.271Z" transform="translate(22.998 179.757)"/><path class="o" d="M52.258,142.739C30.92,133.848,16.105,124.394,7.505,118.1A19.08,19.08,0,0,1,.253,99.7l11-68.609A20.974,20.974,0,0,1,22.922,15.205,185.915,185.915,0,0,1,72.93.236,112.558,112.558,0,0,1,92.262.646c7.131.753,23.455,5.9,33.831,9.345a20.722,20.722,0,0,1,12.788,12.767c4.351,12,11.419,32.254,13.673,43.2,7.783,37.81,6.507,35.011,6.507,35.011l8.039,58.147-85.366,5.118L59.914,153.59Z" transform="translate(28.674 76.068)"/><path class="p" d="M46.862,10.991S39.3-5.594,19.2,1.982C4.658-1.4-6.444,17.031,4.275,42.112l20.193,5.016Z" transform="translate(86.898 0)"/><path class="m" d="M27.371,0V29.336c0,6.865-5.2,12.43-11.622,12.432C7.051,41.767,0,34.225,0,24.922V0Z" transform="translate(95.671 57.877)"/><path class="q" d="M20.289.8v16C8.093,16.871,0,0,0,0Z" transform="translate(102.753 69.244)"/><path class="m" d="M41.542,39.1A59.621,59.621,0,0,1,38.25,50.981C35.616,57.41,31.6,62.308,25.457,62.447,11.086,62.775,0,41.768,0,41.768L2.3,13.1,13.207,0l30.05,19.86A115.881,115.881,0,0,1,41.542,39.1Z" transform="translate(93.565 15.085)"/><path class="p" d="M3.637,39.516s2.967-12.9,13.3-21.293c0,0,15.025,20.986,30.912,10.852s9-30.1-5.838-27.026L24.978,0,3.637,7.269,0,25.184Z" transform="translate(91.747 8.943)"/><path class="r" d="M51.014,72.361C36.538,38.9,18.291,54.871,13.824,42.587,7.566,25.374,8.753,5.9,8.72,0L0,52.517S19.467,54.5,26.664,67.035Z" transform="translate(59.453 124.76)"/><path class="c" d="M9.48.12C8.937,4.613,8.3,9.087,7.636,13.558c-.643,4.474-1.4,8.926-2.093,13.391Q4.453,33.636,3.236,40.3L1.988,46.956c-.451,2.212-.871,4.431-1.355,6.637L0,53.473c.253-2.25.57-4.488.857-6.731l.964-6.711q.987-6.706,2.116-13.386c.781-4.448,1.5-8.908,2.33-13.346C7.081,8.857,7.916,4.421,8.848,0Z" transform="translate(59.137 123.745)"/><path class="c" d="M.589,0C1.748,5.835,2.817,11.687,3.866,17.543,4.932,23.4,5.893,29.268,6.911,35.13q1.457,8.806,2.847,17.624l1.336,8.829c.412,2.948.854,5.893,1.235,8.848l-.589.113c-.6-2.916-1.133-5.84-1.7-8.76L8.441,53Q6.892,44.216,5.418,35.413C4.479,29.536,3.484,23.67,2.593,17.784,1.685,11.9.8,6.015,0,.111Z" transform="translate(152.606 115.559)"/><path class="r" d="M24.5,0C25.52,10.647,23.989,65.791,0,66.61L.255,78.622l37.771-2.457Z" transform="translate(132.739 142.641)"/><path class="q" d="M1.531,7.408C18.566-.372,21.823-.082,24.117.038c7.848.409,19.14,17.2,19.14,17.2l-.191,3.071H0Z" transform="translate(106.389 200.341)"/><path class="s" d="M0,0H53.019V8.6H0Z" transform="translate(120.426 217.646)"/><path class="j" d="M92.129,88.068H0L20.672,0H112.8Z" transform="translate(153.411 138.184)"/><path class="t" d="M100.734,1.3C91.619-.152,62.142-6.7,1.4,32.88L0,38.34l92.384-1.016Z" transform="translate(153.156 188.929)"/><g transform="translate(239.32 184.818)"><path class="m" d="M16.317.358C15.743,4.5,15.552,10.6,3.541,9.828L0,7.883,3.349,3.942,10.575,0Z" transform="translate(0 24.62)"/><path class="m" d="M14.1,0s6.573,9.186-.031,12.012A35.818,35.818,0,0,1,0,14.776c3.062-9.214,13.015-8.6,13.015-8.6Z" transform="translate(3.351 13.786)"/><path class="m" d="M14.955,0s9.06,9.009.638,11.534C3.7,15.1.025,15.356.025,15.356-.613,8.6,11.19,4.231,11.19,4.231Z" transform="translate(2.687 7.848)"/><path class="m" d="M13.613,0s12.378,8.053.766,12.558S.024,16.994.024,16.994c-.638-6.757,11.8-9.077,11.8-9.077Z" transform="translate(2.177 0)"/><path class="u" d="M0,5.528S13.494,3.481,17.514,0" transform="translate(2.201 11.466)"/><path class="u" d="M0,5.391S14.036,3.276,18.439,0" transform="translate(2.712 17.813)"/><path class="u" d="M0,2.15S8.326,2.457,13.015,0" transform="translate(3.349 26.412)"/></g><path class="p" d="M0,24.842c1.4-.819,23.607,4.368,48.234-15.151L16.461,0Z" transform="translate(111.94 317.629)"/><path class="n" d="M138.653,5.978c1.057-1.613,1.968-3.988.636-5.348C137.9-.795,135.636.458,134.182,1.8a63.733,63.733,0,0,0-7.044,7.7L73.5,20.163,0,39.27,12.637,56.524c36.75,2.867,57.68,3.6,80.678-.737,11.723-2.213,22.2-4.494,30.018-11.308,1.86-1.63,3.621-4.365,2.412-6.585-.819-1.5-2.518-1.892-4.226-1.876a52.029,52.029,0,0,0,11.362-4.332c1.615-.835,3.415-2.146,3.375-4.062A3.518,3.518,0,0,0,134,24.594a8.229,8.229,0,0,0-3.79-.352,48.991,48.991,0,0,0-14.347,3.391C124.237,21.375,132.758,14.9,138.653,5.978ZM115.746,27.714c0-.016.008-.025.023-.041a.3.3,0,0,0,.077-.033C115.815,27.665,115.777,27.689,115.746,27.714Z" transform="translate(114.367 223.761)"/><path class="p" d="M0,34.86S71.585-1.584,94.937.054s22.586,32.759,13.781,46.272S79.241,77.856,3.062,72.533Z" transform="translate(129.932 202.373)"/><path class="d" d="M75.122,85.272c-3.874,1.171-9.371,1.458-16.935.172,0,0-9.8,2.719-19.447,4.857-6.531,1.45-12.985,2.629-16.285,2.514-.283-.008-.567-.025-.858-.049-6.332-.483-14.309-4.013-18.543-9.058a.081.081,0,0,0-.031-.041,12.817,12.817,0,0,1-2.519-4.5c-2.3-7.649,2.557-16.928,28.841-15.02,0,0,8.674-2.179,10.719-9.009S27.049,15.561,27.049,15.561L48.486,0,69.541,24.979S72.733,47.5,72.733,54.871c0,0,8.927,13.652,10.206,19.655C83.758,78.36,81.967,83.2,75.122,85.272Z" transform="translate(90.633 302.342)"/><path class="c" d="M0,4.05A77.529,77.529,0,0,1,7.487,1.472C8.753,1.1,10.029.756,11.325.484Q12.3.273,13.292.126c.334-.048.666-.085,1.013-.114a6.8,6.8,0,0,1,1.072.022A30.034,30.034,0,0,1,23.1,2.245c2.464,1,4.875,2.129,7.243,3.345s4.686,2.54,6.96,3.943,4.509,2.88,6.682,4.458A73.432,73.432,0,0,1,56.033,24.81l-.454.487q-2.887-2.794-6.012-5.272C47.5,18.354,45.36,16.787,43.172,15.3A129.882,129.882,0,0,0,29.636,7.14c-2.321-1.229-4.684-2.365-7.085-3.378a33.324,33.324,0,0,0-7.3-2.342,5.67,5.67,0,0,0-.88-.055c-.3.016-.621.042-.934.077-.63.074-1.265.17-1.9.288-1.267.237-2.537.512-3.8.816C5.209,3.162,2.689,3.879.215,4.7Z" transform="translate(45.223 176.144)"/><path class="n" d="M.766,17.608c8.613-.614,17.078.045,23.224-2.252,6.571-2.457,23.734-.819,23.734-.819L38.281,0,0,10.237Z" transform="translate(57.198 269.787)"/><path class="c" d="M6.341,72.972c-8.8-15.151-8.8-45.044,2.3-58.557C21.326-1.029,48.45-6.878,62.614,11.139s40.195,83.945,45.554,128.58c0,0-28.711-10.237-48.234,15.151,0,0-25.648-62.652-31.008-85.584L14.38,81.571Z" transform="translate(52.006 187.602)"/><path class="d" d="M64.57.291s-3.828-1.5-9.187,2.32c0,0-41.853-.955-51.169,9.145S2.045,35.37,15.7,36.872c11.459,1.26,33.7-8.248,40.559-11.337a12.833,12.833,0,0,1,4.379-1.11l11.335-.793Z" transform="translate(16.362 256.598)"/><path class="m" d="M12.027,7.863S9.22-2.088,3.043.4s-2.887,15.443,9.3,19.046Z" transform="translate(85.62 41.43)"/><path class="c" d="M.369,2.139a43.651,43.651,0,0,0,9.742,5.679A27.115,27.115,0,0,0,20.829,9.981,22.472,22.472,0,0,0,31.312,7.2l1.223-.665c.4-.236.767-.533,1.154-.8a17.972,17.972,0,0,0,2.233-1.726L37,3.075l.539-.466c.175-.162.33-.346.5-.518Q39.013,1.038,40.024,0l.458.412q-.9,1.169-1.84,2.323c-.158.19-.3.393-.472.573l-.518.524L36.611,4.884A19.121,19.121,0,0,1,34.368,6.8c-.392.295-.766.625-1.173.894l-1.256.766a21.857,21.857,0,0,1-11.1,3.143A26.785,26.785,0,0,1,9.626,9.1,36.55,36.55,0,0,1,0,2.642Z" transform="translate(90.701 102.031)"/><path class="p" d="M.58,0,3.9,12.416C5.026,16.546,6.081,20.7,7.26,24.807c1.154,4.118,2.3,8.236,3.514,12.333.606,2.047,1.2,4.1,1.868,6.126.324,1.016.617,2.046.96,3.054s.676,2.023,1,3.042l-.551.247q-1.282-2.937-2.412-5.948c-.752-2.006-1.438-4.038-2.131-6.066-1.36-4.068-2.562-8.19-3.7-12.329-1.1-4.15-2.2-8.3-3.156-12.492S.764,4.386,0,.147Z" transform="translate(74.008 230.744)"/><path class="v" d="M43.384,18.627c-3.874,1.171-9.371,1.458-16.935.172,0,0-16.208,4.439-26.448,6.179C10.527,22.727,25.84,8.8,24.117,0,39.239,5.323,43.353,13.411,43.384,18.627Z" transform="translate(122.372 368.986)"/><path class="r" d="M32.631,5.184a15.153,15.153,0,0,1-7.916,5.192,20.331,20.331,0,0,1-4.9.762C13.482,10.655,5.5,7.125,1.271,2.08a.081.081,0,0,0-.031-.041A19.5,19.5,0,0,1,0,0,30.923,30.923,0,0,0,7.342,5.479a28.132,28.132,0,0,0,4.065,1.769c.681.278,1.393.442,2.1.655a17.265,17.265,0,0,0,2.144.459C21.368,9.394,27.44,8.755,32.631,5.184Z" transform="translate(92.417 383.969)"/><path class="q" d="M6.623,6.159a6.991,6.991,0,0,0-1-2.49A7.3,7.3,0,0,0,3.938,1.721,1.785,1.785,0,0,0,1.98,1.335,4.662,4.662,0,0,0,.424,3.309L0,3.151A4.174,4.174,0,0,1,1.47.405,2.174,2.174,0,0,1,3.138.039,3.463,3.463,0,0,1,4.6.726,6.691,6.691,0,0,1,6.476,3.146a5.553,5.553,0,0,1,.6,3.024Z" transform="translate(88.249 44.547)"/><path class="p" d="M3.537,2.964c-.269,1.413-1.264,2.389-2.222,2.18S-.2,3.621.068,2.208,1.332-.181,2.29.028,3.805,1.552,3.537,2.964Z" transform="translate(127.763 47.493)"/><path class="p" d="M2.587,3.547c1.439-.015,2.615-.821,2.626-1.8S4.065-.015,2.626,0,.011.821,0,1.8,1.147,3.562,2.587,3.547Z" transform="translate(112.466 51.82) rotate(-80.739)"/><path class="q" d="M1.863.04C1.954,1.2,2,2.36,2.01,3.492a2.114,2.114,0,0,0,.57,1.2A12.529,12.529,0,0,1,3.692,6.059a2.932,2.932,0,0,1,.4.993,3.779,3.779,0,0,1,.065,1.043,3.578,3.578,0,0,1-.7,1.9,2.482,2.482,0,0,1-.787.673,2.122,2.122,0,0,1-.977.22A3.043,3.043,0,0,1,0,10.239l.212-.423a2.839,2.839,0,0,0,1.428.218A1.4,1.4,0,0,0,2.651,9.34a2.651,2.651,0,0,0,.085-2.613c-.236-.4-.627-.784-1-1.283a3.093,3.093,0,0,1-.707-1.93C1.114,2.325,1.245,1.16,1.416,0Z" transform="translate(120.852 51.72)"/><path class="p" d="M0,2.132A7.177,7.177,0,0,1,2.15.553,5.369,5.369,0,0,1,4.814.008a4.659,4.659,0,0,1,2.578,1.01A6.473,6.473,0,0,1,9.113,3.151l-.354.295a12.568,12.568,0,0,0-1.912-1.52,4.771,4.771,0,0,0-2.113-.7A8.447,8.447,0,0,0,.263,2.521Z" transform="translate(110.373 42.771)"/><path class="p" d="M0,2.555A3.425,3.425,0,0,1,1.677.586,4.811,4.811,0,0,1,4.12,0,4.754,4.754,0,0,1,6.536.711,4.1,4.1,0,0,1,8.19,2.665l-.376.262a5.236,5.236,0,0,0-3.723-1.7A4.367,4.367,0,0,0,.4,2.766Z" transform="translate(125.951 43.751)"/><path class="s" d="M0,0,10.156.774S4.491,8.812,0,0Z" transform="translate(115.498 65.536)"/><path class="w" d="M6.646.057A59.616,59.616,0,0,1,3.354,11.941,6.408,6.408,0,0,1,.144,4.892,5.964,5.964,0,0,1,5.872,0a4.848,4.848,0,0,1,.773.057Z" transform="translate(128.462 54.126)"/><path class="w" d="M5.787,12.437a6.445,6.445,0,0,0,6.077-6.364A5.738,5.738,0,0,0,6.079,0,6.445,6.445,0,0,0,0,6.365,5.738,5.738,0,0,0,5.787,12.437Z" transform="translate(101.382 55.532) rotate(-22.78)"/></g></g></svg>