<svg xmlns="http://www.w3.org/2000/svg" width="83.712" height="83.797" viewBox="0 0 83.712 83.797">
  <g id="mail_icon_" data-name="mail icon " transform="translate(-250.013 -60.36)">
    <path id="Path_1151" data-name="Path 1151" d="M253.863,93.6l38.246-32.376a4.392,4.392,0,0,1,5.259.018L335.034,93.6Z" transform="translate(-2.58 0)" fill="#2cbeff"/>
    <rect id="Rectangle_397" data-name="Rectangle 397" width="83.712" height="54.927" rx="8.083" transform="translate(250.012 89.23)" fill="#2cbeff"/>
    <path id="Path_1152" data-name="Path 1152" d="M337.187,158.87l-8.8,6.81-.115.089-7.137,5.523-5.154,3.989-10.733,8.308-2.065,1.6-1.148-.7a5.57,5.57,0,0,0-5.843.02l-1.142.709-1.808-1.392-11.1-8.546-5.183-3.989-7.173-5.523-1.313-1.01-7.652-5.89Z" transform="translate(-7.242 -66.007)" fill="#fbfdff"/>
    <path id="Path_1153" data-name="Path 1153" d="M338.015,250.874,303.185,229.6l-1.148-.7a5.57,5.57,0,0,0-5.843.02l-1.142.709L260.82,250.874l32.424-22.641,2.851-1.99a5.563,5.563,0,0,1,6.645,0L305.251,228Z" transform="translate(-7.242 -110.413)" fill="#189fdb"/>
    <rect id="Rectangle_398" data-name="Rectangle 398" width="76.368" height="24.867" transform="translate(253.577 68.003)" fill="#fbfdff"/>
    <rect id="Rectangle_399" data-name="Rectangle 399" width="59.92" height="3.988" transform="translate(261.229 76.755)" fill="#e0e8ef"/>
    <rect id="Rectangle_400" data-name="Rectangle 400" width="59.92" height="3.988" transform="translate(261.229 86.265)" fill="#e0e8ef"/>
    <path id="Path_1154" data-name="Path 1154" d="M343.929,167.7v3.9l-.115.089h-58.49l-1.313-1.01V167.7Z" transform="translate(-22.78 -71.923)" fill="#e0e8ef"/>
    <path id="Path_1155" data-name="Path 1155" d="M353.91,196.52l-5.154,3.989H314.914l-5.184-3.989Z" transform="translate(-40.014 -91.234)" fill="#e0edf3"/>
  </g>
</svg>
