<svg xmlns="http://www.w3.org/2000/svg" width="34.159" height="30" viewBox="0 0 34.159 30"><defs><style>.a{fill:#53606d;}.b{fill:#2cbeff;}.c{fill:#ffcc03;}.d{fill:#f6fbff;}</style></defs><g transform="translate(0 -18.8)"><g transform="translate(0 18.8)"><path class="a" d="M3.938,18.8H23.85a3.947,3.947,0,0,1,3.938,3.938V43.225a3.947,3.947,0,0,1-3.938,3.938H3.938A3.947,3.947,0,0,1,0,43.225V22.694A3.938,3.938,0,0,1,3.938,18.8Z" transform="translate(0 -18.8)"/><path class="b" d="M12.876,119.163l-5.841-5.841L0,120.357V125a3.947,3.947,0,0,0,3.938,3.938H23.85A3.947,3.947,0,0,0,27.788,125v-7.566L21.195,110.8Z" transform="translate(0 -100.623)"/><circle class="c" cx="2.478" cy="2.478" r="2.478" transform="translate(10.221 6.903)"/><circle class="d" cx="6.372" cy="6.372" r="6.372" transform="translate(21.416 17.257)"/></g><g transform="translate(24.779 38.535)"><path class="b" d="M242.8,198.129a.907.907,0,0,1,.929-.929.935.935,0,0,1,.929.929v6.018a.929.929,0,0,1-1.858,0Z" transform="translate(-240.72 -197.2)"/><path class="b" d="M243.065,198.749a.907.907,0,1,1,1.283-1.283l2.124,2.124a.907.907,0,0,1-1.283,1.283Z" transform="translate(-240.72 -197.2)"/><path class="b" d="M226.345,197.465a.907.907,0,0,1,1.283,1.283l-2.08,2.124a.907.907,0,0,1-1.283-1.283Z" transform="translate(-224 -197.2)"/></g></g></svg>