<svg xmlns="http://www.w3.org/2000/svg" width="24" height="24" viewBox="0 0 24 24"><defs><style>.a{fill:#fff;opacity:0;}.b{fill:#96aabe;stroke:#96aabe;stroke-width:0.2px;}</style></defs><g transform="translate(5845 12425)"><rect class="a" width="24" height="24" transform="translate(-5845 -12425)"/><g transform="translate(-5845.021 -12424.44)"><g transform="translate(2.022 21.441) rotate(-90)"><path class="b" d="M4.318,20A4.372,4.372,0,0,1,0,15.773l0-.209V4.435A4.386,4.386,0,0,1,4.115,0l.2,0H9.065A4.372,4.372,0,0,1,13.38,4.226l0,.209v.932a.729.729,0,0,1-1.454.1l-.007-.1V4.435A2.9,2.9,0,0,0,9.234,1.5l-.168,0H4.318A2.892,2.892,0,0,0,1.465,4.262l0,.173V15.565A2.9,2.9,0,0,0,4.15,18.5l.168.005H9.075a2.883,2.883,0,0,0,2.844-2.752l0-.172v-.943a.73.73,0,0,1,1.455-.1l.006.1v.943A4.376,4.376,0,0,1,9.284,20l-.209,0ZM15.9,13.445a.765.765,0,0,1-.068-.977l.07-.085,1.6-1.634H7.544a.752.752,0,0,1-.1-1.493l.1-.006H17.5L15.9,7.617a.765.765,0,0,1-.074-.977l.071-.085a.717.717,0,0,1,.951-.075l.082.072,2.852,2.915a.755.755,0,0,1,.209.436h0l0,.017v0l0,.018h0q0,.028,0,.057h0v0s0,.01,0,.015v0s0,.008,0,.012v.047a.761.761,0,0,1-.071.252v0l-.006.013-.005.01,0,0-.007.014h0l-.008.013h0l-.008.014h0l-.008.012v0l-.007.011,0,0-.007.009,0,0,0,0h0a.748.748,0,0,1-.088.1l-2.835,2.9a.716.716,0,0,1-1.032,0Z" transform="translate(0)"/></g></g></g></svg>