<svg xmlns="http://www.w3.org/2000/svg" width="671.345" height="554.486" viewBox="0 0 671.345 554.486"><defs><style>.a{fill:#2cbeff;opacity:0.2;}.b,.d,.f{opacity:0.5;}.c,.d,.k{fill:none;}.c,.d,.e,.i{stroke:#96aabe;}.c,.d,.e,.g,.h,.i,.k,.l,.m,.n,.p{stroke-miterlimit:10;}.e,.h,.m{fill:#fff;}.e,.g,.h,.i{opacity:0.3;}.f{fill:#96aabe;}.g,.i{fill:rgba(44,190,255,0.5);}.g,.h{stroke:#000;}.j,.l{fill:#b5b5b5;}.k,.l,.m,.n,.p{stroke:#263238;}.n,.o{fill:#263238;}.p{fill:#00d0ff;}</style></defs><g transform="translate(-29.476 -59.853)"><g transform="translate(32.432 125.876)"><path class="a" d="M92.379,584.681H654.988c9.236-11.039,62.953-80.929,38.878-187.139-26.292-116-41.759-117.541-157.752-190.23S379.907,72.758,246.9,122.249,109.253,264.535,115.439,338.772,36.562,470.233,31.924,516.63C28.2,553.875,60.35,578.146,92.379,584.681Z" transform="translate(-31.628 -104.439)"/></g><g class="b" transform="translate(59.441 60.353)"><circle class="c" cx="74.314" cy="74.314" r="74.314"/><circle class="c" cx="66.883" cy="66.883" r="66.883" transform="translate(7.431 7.431)"/><path class="c" d="M82.924,142.012l26.023-16.692L80.992,79.575" transform="translate(-34.633 -51.006)"/></g><g class="b" transform="translate(55.973 321.824)"><rect class="c" width="175.381" height="283.384"/><g transform="translate(6.936 15.854)"><rect class="c" width="161.509" height="98.094"/><rect class="c" width="24.771" height="22.79" transform="translate(65.396 38.643)"/></g><g transform="translate(6.936 128.811)"><rect class="c" width="161.509" height="98.094"/><rect class="c" width="24.771" height="22.79" transform="translate(65.396 38.643)"/></g><g transform="translate(6.936 242.759)"><rect class="c" width="161.509" height="39.634"/></g></g><g class="b" transform="translate(54.228 225.857)"><path class="c" d="M98.791,214.632h-45.4l5.675,32.092H93.116Z" transform="translate(-42.843 -150.835)"/><path class="c" d="M77.846,186.837c0,6.473-6.392,13.424-6.392,13.424s-9.8-6.951-9.8-13.424,8.1-15.129,8.1-15.129S77.846,180.364,77.846,186.837Z" transform="translate(-38.825 -171.708)"/><path class="c" d="M62.245,196.133c4.15,4.967,3.7,14.4,3.7,14.4s-11.979.947-16.129-4.02-3.482-16.8-3.482-16.8S58.1,191.165,62.245,196.133Z" transform="translate(-46.294 -162.954)"/><path class="c" d="M79.426,186.018c4.506-4.646,15.084-3.2,15.084-3.2s1.048,9.827-3.457,14.475-16.345,5.224-16.345,5.224S74.922,190.664,79.426,186.018Z" transform="translate(-32.476 -166.409)"/><path class="c" d="M85.974,213.434c-6.052-2.3-10.282-10.74-10.282-10.74s9.977-6.7,16.029-4.4,11.27,12.938,11.27,12.938S92.025,215.732,85.974,213.434Z" transform="translate(-31.998 -159.013)"/><line class="c" y1="50.287" transform="translate(32.203 12.998)"/><line class="c" y1="21.734" x2="25.144" transform="translate(31.777 24.078)"/><line class="c" x1="25.57" y1="20.03" transform="translate(6.634 37.289)"/><line class="c" x2="19.603" y2="7.671" transform="translate(38.17 41.124)"/></g><g transform="translate(347.779 162.785)"><rect class="d" width="340.849" height="227.603"/><rect class="d" width="331.704" height="221.496" transform="translate(4.572 3.053)"/><path class="e" d="M273.894,155.073s3.631,19.6,3.631,25.412v20.331s14.521.725,26.138,0,25.412-7.987,25.412-7.987-5.082-19.6-5.082-24.687-2.906-17.425-2.906-17.425Z" transform="translate(-229.167 -118.843)"/><path class="e" d="M276.771,235.719s-2.179,16.7-2.179,23.96-3.629,18.877-3.629,18.877,17.425,6.535,21.781,6.535,23.235-1.452,23.235-1.452l2.9-42.839S282.58,237.171,276.771,235.719Z" transform="translate(-230.592 -77.509)"/><path class="e" d="M329.1,179.657l8.713,39.933s10.891.727,22.508.727,31.221-10.891,31.221-10.891-9.438-18.877-9.438-23.96-2.9-19.6-2.9-19.6-29.769,9.439-34.125,10.165S329.1,179.657,329.1,179.657Z" transform="translate(-202.323 -111.479)"/><path class="e" d="M374.014,167.815s-2.179,26.139-2.179,29.043-.727,14.521-.727,14.521,14.522,2.179,22.508,2.179,21.783-.727,21.783-.727-.727-25.412.725-27.591,2.179-13.794,2.179-13.794S376.918,168.542,374.014,167.815Z" transform="translate(-181.894 -110.529)"/><path class="e" d="M384.285,207.846v17.427c0,2.9-1.452,23.96-1.452,23.96s18.877.725,26.138,0,21.783-5.083,21.783-5.083l-2.179-23.234-1.452-15.975S392.272,210.025,384.285,207.846Z" transform="translate(-176.192 -92.475)"/><path class="e" d="M466.128,141.422l-16.7.725h-8.713v12.344c0,3.631-.727,15.248-.727,17.427s11.617,3.63,16.7,3.63h18.152l.725-35.577Z" transform="translate(-148.398 -124.069)"/><g class="b" transform="translate(275.617 95.768)"><line class="c" x2="31.221"/><line class="c" x2="31.221" transform="translate(0 7.261)"/><line class="c" x2="31.221" transform="translate(0 14.521)"/><line class="c" x2="31.221" transform="translate(0 21.782)"/></g><g class="b" transform="translate(114.43 12.996)"><line class="c" x2="103.102"/><line class="c" x2="103.102" transform="translate(0 7.261)"/></g><g class="b" transform="translate(219.71 171.279)"><line class="c" x2="31.221"/><line class="c" x2="31.221" transform="translate(0 7.261)"/><line class="c" x2="31.221" transform="translate(0 14.521)"/><line class="c" x2="31.221" transform="translate(0 21.782)"/></g><g class="b" transform="translate(25.849 123.359)"><line class="c" x2="31.221"/><line class="c" x2="31.221" transform="translate(0 7.261)"/><line class="c" x2="31.221" transform="translate(0 14.521)"/><line class="c" x2="31.221" transform="translate(0 21.782)"/></g><g class="b" transform="translate(245.848 31.874)"><line class="c" x2="31.221"/><line class="c" x2="31.221" transform="translate(0 7.261)"/><line class="c" x2="31.221" transform="translate(0 14.521)"/><line class="c" x2="31.221" transform="translate(0 21.782)"/></g><path class="f" d="M353.825,201l-17.9,5.113,4.606,3.992c-8.375,5.51-26.106,14.952-37.714,5.364-15.558-12.852-11.371-23.966-11.186-24.433l-1.378-.559-1.373-.566c-.226.545-5.3,13.522,12.045,27.851a21.426,21.426,0,0,0,14.045,4.853c10.835,0,22.012-6.456,27.915-10.469l5.822,5.046Z" transform="translate(-222.297 -99.787)"/><path class="f" d="M458.767,182.445,453.6,165.206,444.115,179l5.26,1.238-5.465,19.672,2.865.8,5.5-19.785Z" transform="translate(-146.492 -111.797)"/><path class="g" d="M296.774,156.539a4.356,4.356,0,1,0-4.356,4.356A4.356,4.356,0,0,0,296.774,156.539Z" transform="translate(-222.278 -118.13)"/><path class="g" d="M350.511,175.1a4.356,4.356,0,1,0-4.356,4.356A4.358,4.358,0,0,0,350.511,175.1Z" transform="translate(-196.147 -109.104)"/><circle class="h" cx="4.356" cy="4.356" r="4.356" transform="translate(211.723 55.108)"/><circle class="g" cx="4.356" cy="4.356" r="4.356" transform="translate(226.245 115.372)"/><path class="g" d="M296.774,242.517a4.356,4.356,0,1,0-4.356,4.358A4.357,4.357,0,0,0,296.774,242.517Z" transform="translate(-222.278 -76.321)"/><path class="i" d="M457.984,142.372a4.356,4.356,0,1,0-4.356,4.356A4.356,4.356,0,0,0,457.984,142.372Z" transform="translate(-143.885 -125.02)"/></g><g transform="translate(398.472 417.024)"><g transform="translate(0 92.695)"><path class="j" d="M400.245,431.184v-4.593l3.534-.745-3.534-.883V423.7l3.2-1.494-3.2-.962V402.389h-3.891V398.5l1.794-.149-1.794-.85v-1.465l4.444.658-2.98-3.643-1.464-2.2v-.819l4.775-.3s-2.705-1.654-4.775-3.139V370.862h4.775s-2.644-1.253-4.775-2.316V362.7H287.395v9.537l-4.85,1.94,4.85,2.157v1.115c-1.5.865-4.056,2.43-4.518,3.355-.663,1.324-1.987,4.306-1.987,4.306s3.313-.663,4.306-.994a3.443,3.443,0,0,1,2.2.278v.172l-3.855,3.857,3.855,1.687v13.061h8.561v.919a14.3,14.3,0,0,0-1.816.563,50.791,50.791,0,0,0-5.631,3.313l4.969-.331-2.319,3.643,4.8.3v18.055h-10.9V436.2a6.1,6.1,0,0,0-2.183.905,13.616,13.616,0,0,0-2.125,1.914c-1.491,1.583-2.843,3.386-2.843,3.386l5.632-1.657-2.981,3.976,2.319.663-1.987,2.98,4.171.3v6.641H394.019v-4.444l3.8.155-1.326-.663,3.313-.993-3.313-3.313-.993-3.974s-.611-.1-1.48-.25V431.184Z" transform="translate(-277.908 -362.696)"/><line class="k" x2="66.248" transform="translate(14.244 10.153)"/><line class="k" x2="37.761" transform="translate(14.906 15.784)"/><line class="k" x1="66.248" transform="translate(43.393 23.733)"/><line class="k" x2="89.435" transform="translate(21.2 40.627)"/><line class="k" x2="64.923" transform="translate(19.543 29.033)"/><line class="k" x1="47.699" transform="translate(64.592 47.252)"/><line class="k" x1="87.448" transform="translate(22.856 56.195)"/><line class="k" x2="51.674" transform="translate(40.08 63.814)"/><line class="k" x1="86.123" transform="translate(26.831 68.451)"/><line class="k" x2="62.273" transform="translate(13.912 80.707)"/><line class="k" x1="45.711" transform="translate(24.512 74.413)"/><line class="k" x2="66.248" transform="translate(31.468 84.35)"/><line class="k" x1="17.887" transform="translate(89.766 73.751)"/></g><g transform="translate(29.726)"><path class="j" d="M420.245,368.817v-4.593l3.534-.745-3.534-.883V361.33l3.2-1.494-3.2-.962V340.022h-3.891v-3.885l1.794-.15-1.794-.849v-1.466l4.444.658-2.98-3.643-1.464-2.2v-.819l4.775-.3s-2.705-1.654-4.775-3.139V308.495h4.775s-2.644-1.253-4.775-2.316v-5.85H307.395v9.537l-4.85,1.94,4.85,2.157v1.115c-1.5.865-4.056,2.43-4.518,3.355-.663,1.324-1.987,4.306-1.987,4.306s3.313-.663,4.306-.994a3.432,3.432,0,0,1,2.2.278v.172l-3.855,3.857,3.855,1.687V340.8h8.561v.918a14.3,14.3,0,0,0-1.816.563,50.8,50.8,0,0,0-5.631,3.313l4.969-.331-2.319,3.643,4.8.3v18.055h-10.9v6.577a6.1,6.1,0,0,0-2.183.905,13.617,13.617,0,0,0-2.125,1.914c-1.491,1.583-2.843,3.386-2.843,3.386l5.632-1.657-2.981,3.976,2.319.663L300.889,386l4.171.3v6.641H414.019V388.5l3.8.155-1.326-.663,3.313-.993-3.313-3.313-.993-3.974s-.611-.1-1.48-.25V368.817Z" transform="translate(-297.908 -300.329)"/><line class="k" x2="66.248" transform="translate(14.244 10.153)"/><line class="k" x2="37.761" transform="translate(14.906 15.784)"/><line class="k" x1="66.248" transform="translate(43.393 23.733)"/><line class="k" x2="89.435" transform="translate(21.2 40.627)"/><line class="k" x2="64.923" transform="translate(19.543 29.033)"/><line class="k" x1="47.699" transform="translate(64.592 47.252)"/><line class="k" x1="87.448" transform="translate(22.856 56.195)"/><line class="k" x2="51.674" transform="translate(40.08 63.814)"/><line class="k" x1="86.123" transform="translate(26.831 68.451)"/><line class="k" x2="62.273" transform="translate(13.912 80.707)"/><line class="k" x1="45.711" transform="translate(24.512 74.413)"/><line class="k" x2="66.248" transform="translate(31.468 84.351)"/><line class="k" x1="17.887" transform="translate(89.766 73.751)"/></g></g><g transform="translate(497.954 509.719)"><path class="l" d="M467.179,431.184v-4.593l3.534-.745-3.534-.883V423.7l3.2-1.494-3.2-.962V402.389h-3.891V398.5l1.794-.149-1.794-.85v-1.465l4.444.658-2.981-3.643-1.463-2.2v-.819l4.775-.3s-2.7-1.654-4.775-3.139V370.862h4.775s-2.644-1.253-4.775-2.316V362.7H354.329v9.537l-4.85,1.94,4.85,2.157v1.115c-1.506.865-4.058,2.43-4.518,3.355-.663,1.324-1.989,4.306-1.989,4.306s3.313-.663,4.307-.994a3.446,3.446,0,0,1,2.2.278v.172l-3.857,3.857,3.857,1.687v13.061h8.561v.919a14.319,14.319,0,0,0-1.818.563,50.944,50.944,0,0,0-5.632,3.313l4.969-.331-2.319,3.643,4.8.3v18.055h-10.9V436.2a6.1,6.1,0,0,0-2.183.905,13.619,13.619,0,0,0-2.127,1.914c-1.489,1.583-2.842,3.386-2.842,3.386l5.63-1.657-2.98,3.976,2.319.663-1.989,2.98,4.172.3v6.641H460.953v-4.444l3.8.155-1.324-.663,3.311-.993-3.311-3.313-.994-3.974s-.609-.1-1.479-.25V431.184Z" transform="translate(-344.842 -362.696)"/><line class="k" x2="66.248" transform="translate(14.243 10.153)"/><line class="k" x2="37.761" transform="translate(14.905 15.784)"/><line class="k" x1="66.248" transform="translate(43.392 23.733)"/><line class="k" x2="89.435" transform="translate(21.199 40.627)"/><line class="k" x2="64.923" transform="translate(19.543 29.033)"/><line class="k" x1="47.699" transform="translate(64.592 47.252)"/><line class="k" x1="87.448" transform="translate(22.855 56.195)"/><line class="k" x2="51.674" transform="translate(40.08 63.814)"/><line class="k" x1="86.123" transform="translate(26.83 68.451)"/><line class="k" x2="62.273" transform="translate(13.912 80.707)"/><line class="k" x1="45.711" transform="translate(24.511 74.413)"/><line class="k" x2="66.248" transform="translate(31.467 84.35)"/><line class="k" x1="17.887" transform="translate(89.766 73.751)"/></g><g transform="translate(525.3 418.561)"><g transform="translate(0 91.158)"><path class="m" d="M485.579,431.184v-4.593l3.534-.745-3.534-.883V423.7l3.2-1.494-3.2-.962V402.389h-3.891V398.5l1.794-.149-1.794-.85v-1.465l4.444.658-2.981-3.643-1.463-2.2v-.819l4.775-.3s-2.707-1.654-4.775-3.139V370.862h4.775s-2.644-1.253-4.775-2.316V362.7H372.729v9.537l-4.85,1.94,4.85,2.157v1.115c-1.506.865-4.058,2.43-4.52,3.355-.661,1.324-1.987,4.306-1.987,4.306s3.313-.663,4.306-.994a3.449,3.449,0,0,1,2.2.278v.172l-3.857,3.857,3.857,1.687v13.061h8.561v.919a14.322,14.322,0,0,0-1.818.563,50.944,50.944,0,0,0-5.632,3.313l4.969-.331-2.319,3.643,4.8.3v18.055h-10.9V436.2a6.1,6.1,0,0,0-2.185.905,13.686,13.686,0,0,0-2.125,1.914c-1.491,1.583-2.843,3.386-2.843,3.386l5.632-1.657-2.982,3.976,2.319.663-1.987,2.98,4.172.3v6.641H479.354v-4.444l3.8.155-1.326-.663,3.313-.993-3.313-3.313-.993-3.974s-.611-.1-1.479-.25V431.184Z" transform="translate(-363.241 -362.696)"/><line class="k" x2="66.248" transform="translate(14.244 10.153)"/><line class="k" x2="37.762" transform="translate(14.906 15.784)"/><line class="k" x1="66.248" transform="translate(43.393 23.733)"/><line class="k" x2="89.435" transform="translate(21.2 40.627)"/><line class="k" x2="64.923" transform="translate(19.544 29.033)"/><line class="k" x1="47.699" transform="translate(64.593 47.252)"/><line class="k" x1="87.448" transform="translate(22.856 56.195)"/><line class="k" x2="51.674" transform="translate(40.081 63.814)"/><line class="k" x1="86.123" transform="translate(26.831 68.451)"/><line class="k" x2="62.273" transform="translate(13.913 80.707)"/><line class="k" x1="45.711" transform="translate(24.513 74.413)"/><line class="k" x2="66.248" transform="translate(31.469 84.35)"/><line class="k" x1="17.887" transform="translate(89.767 73.751)"/></g><path class="m" d="M485.579,369.851v-4.593l3.534-.745-3.534-.883v-1.266l3.2-1.5-3.2-.96V341.054h-3.891V337.17l1.794-.15-1.794-.85v-1.464l4.444.658-2.981-3.644-1.463-2.194v-.819l4.775-.3s-2.707-1.654-4.775-3.139V309.527h4.775s-2.644-1.251-4.775-2.314v-5.85H372.729V310.9l-4.85,1.94,4.85,2.155v1.116c-1.506.865-4.058,2.43-4.52,3.353-.661,1.326-1.987,4.307-1.987,4.307s3.313-.663,4.306-.994a3.429,3.429,0,0,1,2.2.278v.172l-3.857,3.855,3.857,1.687v13.063h8.561v.918a14.327,14.327,0,0,0-1.818.563,50.756,50.756,0,0,0-5.632,3.311l4.969-.331-2.319,3.644,4.8.3v18.055h-10.9v6.575a6.073,6.073,0,0,0-2.185.907,13.688,13.688,0,0,0-2.125,1.914c-1.491,1.581-2.843,3.384-2.843,3.384l5.632-1.656-2.982,3.974,2.319.663-1.987,2.981,4.172.3v6.642H479.354v-4.444l3.8.155-1.326-.663,3.313-.994-3.313-3.311-.993-3.976s-.611-.1-1.479-.248V369.851Z" transform="translate(-363.241 -301.363)"/><line class="k" x2="66.248" transform="translate(14.244 10.152)"/><line class="k" x2="37.762" transform="translate(14.906 15.783)"/><line class="k" x1="66.248" transform="translate(43.393 23.733)"/><line class="k" x2="89.435" transform="translate(21.2 40.626)"/><line class="k" x2="64.923" transform="translate(19.544 29.033)"/><line class="k" x1="47.699" transform="translate(64.593 47.251)"/><line class="k" x1="87.448" transform="translate(22.856 56.195)"/><line class="k" x2="51.674" transform="translate(40.081 63.813)"/><line class="k" x1="86.123" transform="translate(26.831 68.45)"/><line class="k" x2="62.273" transform="translate(13.913 80.706)"/><line class="k" x1="45.711" transform="translate(24.513 74.413)"/><line class="k" x2="66.248" transform="translate(31.469 84.35)"/><line class="k" x1="17.887" transform="translate(89.767 73.75)"/></g><g transform="translate(325.431 381.39)"><path class="m" d="M355.835,428.359H228.765v-6.777L355.835,414.8Z" transform="translate(-228.765 -209.028)"/><g transform="translate(139.236)"><g transform="translate(0 113.074)"><path class="m" d="M382.764,433.488l-32.75-81.056-5.542,2.24v1.318l32.292,79.923a12.369,12.369,0,0,1-11.47,17H322.446v6.471h42.848a18.841,18.841,0,0,0,17.47-25.9Z" transform="translate(-322.446 -352.432)"/></g><rect class="m" width="10.166" height="190.606" transform="translate(33.48 0) rotate(6.881)"/></g><path class="m" d="M341.177,431.537H286.146v-6.479a13.642,13.642,0,0,1,12.268-13.571l27.749-2.811a13.641,13.641,0,0,1,15.014,13.573Z" transform="translate(-200.862 -212.042)"/></g><g transform="translate(104.266 302.875)"><g transform="translate(40.714)"><path class="n" d="M181.753,254.55s-11.721-28.376-22.825-30.843S100.943,244.68,113.9,266.269s26.526,20.358,38.863,14.8S181.753,254.55,181.753,254.55Z" transform="translate(-105.262 -223.527)"/><path class="n" d="M133.26,232.116s-12.338-4.318-18.506-4.318-7.4,19.739-7.4,19.739S111.671,228.415,133.26,232.116Z" transform="translate(-107.353 -221.45)"/><g transform="translate(63.628 41.489)"><path class="m" d="M245.686,262.565s6.786,9.254,8.637,17.272-3.084,16.655-1.234,23.442,10.486,12.954,9.869,17.272S250,331.655,250,331.655s-10.486,25.291-14.8,27.141-19.122-2.467-25.907-5.551-15.422-2.467-15.422-2.467l-40.1-20.356s4.318-8.02-.617-19.741-7.4-31.46,22.825-51.2S245.686,262.565,245.686,262.565Z" transform="translate(-150.163 -251.442)"/><path class="k" d="M213.322,305.539s-2.467-4.319-8.02-2.469" transform="translate(-123.351 -226.56)"/><path class="o" d="M215.431,286.061c0,3.066-.966,5.551-2.158,5.551s-2.16-2.485-2.16-5.551.966-5.553,2.16-5.553S215.431,282.995,215.431,286.061Z" transform="translate(-120.525 -237.307)"/><path class="k" d="M209.868,274.44a5.673,5.673,0,0,1,8.635.615" transform="translate(-121.13 -241.109)"/><ellipse class="k" cx="10.795" cy="17.272" rx="10.795" ry="17.272" transform="translate(82.569 26.545)"/><line class="m" x1="48.116" y2="4.935" transform="translate(34.453 43.818)"/></g><path class="n" d="M181.783,323.248S170.063,336.2,163.277,336.2s-19.739-8.635-25.907-17.889,6.168-32.694,12.953-46.265,19.124-36.4,44.414-41.33,35.162-3.084,56.752,8.02,19.122,27.141,15.422,32.077a57.616,57.616,0,0,1-9.252,9.252s13.57-7.4,18.506-4.934,4.934,5.551,4.934,5.551-15.422.617-17.272.617-8.02,3.086-8.02,3.086-12.953,3.084-19.739,1.234-16.038-8.637-16.655-1.234-9.87,20.356-13.571,21.59-9.254,1.85-14.188,5.553S181.783,323.248,181.783,323.248Z" transform="translate(-93.572 -221.287)"/><path class="m" d="M183.07,292.412s-8.635-17.889-17.272-10.487.617,26.526,4.319,28.376,11.1-3.084,11.1-3.084.617,8.018,3.084,11.721" transform="translate(-80.671 -196.002)"/></g><g transform="translate(93.763 115.997)"><path class="p" d="M143.046,326.4s10.487-10.487,10.487-17.272,3.7-12.338,27.142-1.234,31.46,24.057,26.524,27.759-15.422,7.4-17.889,9.869-11.1,14.188-11.1,14.188S163.4,326.4,143.046,326.4Z" transform="translate(-143.046 -301.573)"/><g transform="translate(18.24 2.692)"><path class="k" d="M162.629,303.384s-5.223,1.043-4.178,4.7a12.573,12.573,0,0,1,0,6.788l-3.133,4.7" transform="translate(-155.318 -303.384)"/><path class="k" d="M172.145,305.826s-5.813,6.291-5.291,8.381,1.567,5.221-.522,6.266a42.9,42.9,0,0,1-5.744,2.088" transform="translate(-152.755 -302.197)"/><path class="k" d="M170.4,322.116c-1.083,1.59-2.085,2.968-2.085,2.968" transform="translate(-148.996 -294.275)"/><path class="k" d="M177.746,310.762s1.045,4.7-1.045,7.833-4.7,3.133-5.221,4.7" transform="translate(-147.459 -299.796)"/><path class="k" d="M188.723,316.383s-2.09,5.744-3.656,7.834-7.311,1.567-8.354,4.178-4.178,5.221-4.178,5.221" transform="translate(-146.946 -297.063)"/></g></g><g transform="translate(101.326 216.766)"><g transform="translate(149.514 12.587)"><path class="k" d="M269.888,383.574c-4.593-1.837-17.45-3.674-17.45-3.674" transform="translate(-246.927 -376.84)"/><path class="k" d="M248.73,379.066s10.1-2.756,16.532,0" transform="translate(-248.73 -377.841)"/></g><path class="m" d="M268.312,395.308s5.449,9.413,6.935,12.385,1.983,4.459.5,4.459-6.936-2.476-7.431-5.449a12.292,12.292,0,0,0-1.486-4.459s2.793,10.9,1.981,11.394c-3.233,1.974-5.45-1.486-5.45-1.486l-3.962-11.89s-1.486,5.945-1.983,7.431-3.468-2.476-3.468-5.449a68.451,68.451,0,0,1,.495-6.936l-2.973-2.478s4.459-4.459,9.414-4.459S268.312,395.308,268.312,395.308Z" transform="translate(-97.885 -360.133)"/><path class="m" d="M242.264,389.685l1.94-.131c8.54-.574,42.467-2.842,44.631-2.842,2.476,0,16.844,7.926,16.844,7.926s8.423-.495,13.376.5,9.413,6.935,11.4,8.918,8.421,4.459,4.954,5.449-4.954,1.486-6.936.991-9.908-5.945-9.908-5.945l-12.882-1.981s-11.89,6.44-13.377,6.935,1.981,3.964,5.45,6.442,8.918,5.945,8.421,9.908-1.981,3.469-5.945,0-7.926-5.449-13.871-9.413-13.871-11.4-15.358-12.882l-2.973-2.973s-34.681,11.4-46.571,14.863a250.668,250.668,0,0,1-33.193,6.936c-7.431.991-21.8-1.981-25.762-4.954s-14.368-12.387-14.368-12.387l17.835-35.671s21.3,19.818,29.726,21.8S242.264,389.685,242.264,389.685Z" transform="translate(-148.134 -369.372)"/><path class="p" d="M195.695,391.171c-8.423-1.981-29.726-21.8-29.726-21.8l-17.835,35.671s10.4,9.414,14.368,12.387,18.33,5.945,25.762,4.954A256.758,256.758,0,0,0,218.42,416.3c.268-2.28.471-4.719.56-7.29.193-5.609.007-11.971-.288-17.647C209.128,391.853,199.452,392.056,195.695,391.171Z" transform="translate(-148.134 -369.372)"/></g><path class="p" d="M216.5,358.558a49.312,49.312,0,0,0-9.264-28.547c-3.016-4.112-6.786-7.883-11.309-9.939-20.6-9.362-35.078-2.58-48.117,14.8-25.907,34.544-43.622,75.6-50.582,92.53C82.7,462.776,79.96,475.522,79.96,475.522h97.464s-4.934-12.338-4.934-15.422,4.934-9.252,4.934-9.252,29.61-10.487,35.162-26.526C216.671,412.522,216.748,376.677,216.5,358.558Z" transform="translate(-79.96 -178.631)"/></g><g transform="translate(177.673 443.283)"><g transform="translate(206.822 45.167)"><path class="k" d="M268.5,350.24s13.776,2.754,22.962,6.428" transform="translate(-268.504 -347.484)"/><path class="k" d="M278.391,348.386s9.184,3.674,15.613,9.184" transform="translate(-263.696 -348.386)"/></g><path class="m" d="M129.35,382.567s30.226,82.661,38.245,85.128,16.038-1.234,19.741-3.7,111.035-78.343,111.035-78.343,19.122,11.1,22.825,11.1,11.1,11.1,12.953,14.8,3.7,5.551,4.319,1.85-4.319-11.721-5.553-14.188a36.685,36.685,0,0,1-1.85-4.318s4.318.617,6.17,1.85,8.018,9.254,9.869,11.721,6.17,4.934,6.17,1.234-6.786-10.487-8.02-13.571a8.62,8.62,0,0,0-3.7-4.318s11.721,1.85,14.8,3.084,4.934,8.635,8.635,9.254-1.85-7.4-3.084-11.1-16.655-8.637-16.655-8.637,9.87-1.234,12.954-1.234,9.87,6.17,11.721,6.17,1.85-1.85-3.084-5.553-13.571-7.4-17.273-7.4a67.964,67.964,0,0,1-11.1-1.234c-3.7-.617-31.46-6.169-37.013-6.169s-88.829,38.863-88.829,38.863l-5.392-4.795a.692.692,0,0,0-.37-.166l-.914-.11a12.919,12.919,0,0,0-8.716,2.473c-.446.3-.893.254-1.263-.486-1.234-2.469-9.252-51.818-13.571-62.3s-17.889-33.927-41.329-20.356" transform="translate(-129.35 -317.997)"/></g><g transform="translate(177.673 443.283)"><path class="p" d="M129.35,382.567s30.226,82.661,38.245,85.128,16.038-1.234,19.741-3.7c1.951-1.3,32.725-23.018,61.379-43.257l-10.676-24.613c-14.337,6.566-25.412,11.734-25.412,11.734l-5.392-4.795a.692.692,0,0,0-.37-.166l-.914-.11a12.919,12.919,0,0,0-8.716,2.473c-.446.3-.893.254-1.263-.486-1.234-2.469-9.252-51.818-13.571-62.3s-17.889-33.927-41.329-20.356" transform="translate(-129.35 -317.997)"/><path class="k" d="M179.3,377.73a130.336,130.336,0,0,1-15.481,15.924" transform="translate(-112.59 -288.95)"/><path class="k" d="M177.928,380.409s-10.174,3.539-18.577,5.75" transform="translate(-114.761 -287.647)"/></g><path class="n" d="M94.422,476.074,77.465,326.843a13.664,13.664,0,0,0-15.511-11.985h0A13.665,13.665,0,0,0,50.33,330.105l18.543,146.2Z" transform="translate(9.844 123.692)"/><g transform="translate(171.801 550.421)"><path class="m" d="M139.537,397.667a7.571,7.571,0,0,0-9.071-1.295c-5.183,2.849-6.219,14.511-3.887,22.8s12.957,3.627,12.957,3.627l-.26-5.441s-8.811,1.036-9.328-3.628-.779-10.624,4.405-10.624,6.737,1.3,6.737,1.3Z" transform="translate(-125.399 -387.509)"/><rect class="m" width="41.156" height="49.253" transform="translate(13.281)"/></g><rect class="n" width="639.334" height="14.434" transform="translate(29.976 599.405)"/></g></svg>