<svg xmlns="http://www.w3.org/2000/svg" width="30" height="30" viewBox="0 0 30 30"><defs><style>.a,.b{fill:#fff;}.a,.c{opacity:0;}.d{fill:#009adf;}.e{fill:#ff5353;}</style></defs><g transform="translate(-1420 -20)"><g transform="translate(1422 22.5)"><rect class="a" width="30" height="30" transform="translate(-2 -2.5)"/><path class="b" d="M6.913,24.5l-.06-.021a.022.022,0,0,1-.013-.015l-.887-.5a.975.975,0,0,0-.358-.07.6.6,0,0,0-.146.015,22.986,22.986,0,0,1-2.822.815l-.175.021H2.4a1.454,1.454,0,0,1-1.148-.461,1.788,1.788,0,0,1-.384-1.2l.026-.213a23.951,23.951,0,0,1,.88-2.865.688.688,0,0,0-.056-.526l-.239-.466A13.006,13.006,0,0,1,13.025,0h.05A13,13,0,1,1,6.913,24.5Zm-.222-2.195c.119.057.271.139.481.256l.549.316.008,0,.373.19a11.22,11.22,0,0,0,11.993-1.431l.287-.243A11.187,11.187,0,0,0,13.062,1.813l-.365,0A11.183,11.183,0,0,0,3.09,18.183l.235.459A2.527,2.527,0,0,1,3.489,20.6a23.06,23.06,0,0,0-.832,2.7l.122-.479.514-.135c.371-.1.72-.208,1.066-.323l.544-.187a2.659,2.659,0,0,1,.7-.095A2.838,2.838,0,0,1,6.691,22.306ZM17.352,13a1.483,1.483,0,1,1,1.483,1.483A1.483,1.483,0,0,1,17.352,13Zm-5.768,0a1.483,1.483,0,1,1,1.483,1.483A1.483,1.483,0,0,1,11.585,13ZM5.817,13A1.483,1.483,0,1,1,7.3,14.482,1.483,1.483,0,0,1,5.817,13Z" transform="translate(0 0)"/></g><g class="c" transform="translate(1 1)"><circle class="d" cx="6" cy="6" r="6" transform="translate(1436 20)"/><circle class="e" cx="5" cy="5" r="5" transform="translate(1437 21)"/></g></g></svg>