<svg xmlns="http://www.w3.org/2000/svg" width="30" height="30" viewBox="0 0 30 30"><defs><style>.a,.b{fill:#fff;}.a{opacity:0;}</style></defs><g transform="translate(-1461 -29)"><rect class="a" width="30" height="30" transform="translate(1461 29)"/><path class="b" d="M47.022,19.636h-1.25V9.818a10,10,0,0,0-20,0v9.818h-1.25a1.227,1.227,0,1,0,0,2.455h6.25a5,5,0,0,0,10,0h6.25a1.227,1.227,0,1,0,0-2.455Zm-11.25,4.909a2.48,2.48,0,0,1-2.5-2.455h5A2.48,2.48,0,0,1,35.772,24.545Zm7.5-4.909h-15V9.818a7.5,7.5,0,0,1,15,0Z" transform="translate(1439.729 31)"/></g></svg>