<svg xmlns="http://www.w3.org/2000/svg" width="22" height="22" viewBox="0 0 22 22"><defs><style>.a{fill:#fff;}.b{fill:#333c46;}</style></defs><g transform="translate(19397 21758)"><rect class="a" width="22" height="22" transform="translate(-19397 -21758)"/><g transform="translate(-19395.205 -21755.799)"><path class="b" d="M5.384,17.6A5.452,5.452,0,0,1,0,12.094V5.506A5.452,5.452,0,0,1,5.384,0h7.758a5.452,5.452,0,0,1,5.384,5.506v6.589A5.452,5.452,0,0,1,13.142,17.6ZM1.346,5.506v6.589a4.088,4.088,0,0,0,4.038,4.128h7.758a4.088,4.088,0,0,0,4.038-4.128v-.256H14.219a3.162,3.162,0,0,1-.168-6.314l.169-.005h2.96V5.506a4.088,4.088,0,0,0-4.038-4.128H5.384A4.088,4.088,0,0,0,1.346,5.506Zm11.13,3.173a1.768,1.768,0,0,0,1.607,1.777l.136.005h2.96V6.9h-2.96A1.763,1.763,0,0,0,12.476,8.679Zm1.874.633a.69.69,0,0,1-.091-1.371l.091-.006h.28A.69.69,0,0,1,14.722,9.3l-.092.007ZM4.745,5.543a.69.69,0,0,1-.091-1.371l.091-.007H9.591a.69.69,0,0,1,.092,1.371l-.092.007Z" transform="translate(0)"/></g></g></svg>